<svg width="18" height="21" viewBox="0 0 18 21" fill="none" xmlns="http://www.w3.org/2000/svg">
<g clip-path="url(#clip0_5833_24638)">
<path d="M16.6221 7.74415C16.5061 7.83415 14.4581 8.98815 14.4581 11.5541C14.4581 14.5221 17.0641 15.5721 17.1421 15.5981C17.1301 15.6621 16.7281 17.0361 15.7681 18.4361C14.9121 19.6681 14.0181 20.8981 12.6581 20.8981C11.2981 20.8981 10.9481 20.1081 9.37811 20.1081C7.84811 20.1081 7.30411 20.9241 6.06011 20.9241C4.81611 20.9241 3.94811 19.7841 2.95011 18.3841C1.79411 16.7401 0.860107 14.1861 0.860107 11.7621C0.860107 7.87415 3.38811 5.81215 5.87611 5.81215C7.19811 5.81215 8.30011 6.68015 9.13011 6.68015C9.92011 6.68015 11.1521 5.76015 12.6561 5.76015C13.2261 5.76015 15.2741 5.81215 16.6221 7.74415ZM11.9421 4.11415C12.5641 3.37615 13.0041 2.35215 13.0041 1.32815C13.0041 1.18615 12.9921 1.04215 12.9661 0.926147C11.9541 0.964147 10.7501 1.60015 10.0241 2.44215C9.45411 3.09015 8.92211 4.11415 8.92211 5.15215C8.92211 5.30815 8.94811 5.46415 8.96011 5.51415C9.02411 5.52615 9.12811 5.54015 9.23211 5.54015C10.1401 5.54015 11.2821 4.93215 11.9421 4.11415Z" fill="black"/>
</g>
<defs>
<clipPath id="clip0_5833_24638">
<rect width="16.28" height="20" fill="white" transform="translate(0.860107 0.926147)"/>
</clipPath>
</defs>
</svg>
