<svg width="25" height="25" viewBox="0 0 25 25" fill="none" xmlns="http://www.w3.org/2000/svg">
<path d="M17.6665 4.42618C17.6665 4.15004 17.4426 3.92618 17.1665 3.92618H14.6665C12.0458 3.79563 9.81178 5.80627 9.6665 8.42618V11.1262H7.1665C6.89036 11.1262 6.6665 11.35 6.6665 11.6262V14.2262C6.6665 14.5023 6.89036 14.7262 7.1665 14.7262H9.6665V21.4262C9.6665 21.7023 9.89036 21.9262 10.1665 21.9262H13.1665C13.4426 21.9262 13.6665 21.7023 13.6665 21.4262V14.7262H16.2865C16.5152 14.7295 16.717 14.5771 16.7765 14.3562L17.4965 11.7562C17.5368 11.6065 17.5054 11.4465 17.4114 11.3232C17.3174 11.1998 17.1716 11.127 17.0165 11.1262H13.6665V8.42618C13.718 7.91328 14.151 7.5236 14.6665 7.52618H17.1665C17.4426 7.52618 17.6665 7.30232 17.6665 7.02618V4.42618Z" fill="#1877F2"/>
</svg>
