<!DOCTYPE svg PUBLIC "-//W3C//DTD SVG 1.1//EN" "http://www.w3.org/Graphics/SVG/1.1/DTD/svg11.dtd">
<!-- Uploaded to: SVG Repo, www.svgrepo.com, Transformed by: SVG Repo Mixer Tools -->
<svg width="64px" height="64px" viewBox="0 0 36 36" xmlns="http://www.w3.org/2000/svg" xmlns:xlink="http://www.w3.org/1999/xlink" aria-hidden="true" role="img" class="iconify iconify--twemoji" preserveAspectRatio="xMidYMid meet" fill="#000000">
<g id="SVGRepo_bgCarrier" stroke-width="0"/>
<g id="SVGRepo_tracerCarrier" stroke-linecap="round" stroke-linejoin="round"/>
<g id="SVGRepo_iconCarrier">
<path fill="#ffffff" d="M18 18V5H4a4 4 0 0 0-4 4v9h18zm0 0v13h14a4 4 0 0 0 4-4v-9H18z"/>
<path fill="#072357" d="M18 18v13H4a4 4 0 0 1-4-4v-9h18z"/>
<path fill="#DA121A" d="M18 18V5h14a4 4 0 0 1 4 4v9H18z"/>
<path fill="#072357" d="M9.674 10.573L9 8.5l-.674 2.073H6.147l1.763 1.281l-.673 2.073L9 12.646l1.763 1.281l-.673-2.073l1.763-1.281z"/>
<path fill="#DA121A" d="M25.91 24.854l-.673 2.073L27 25.646l1.763 1.281l-.673-2.073l1.763-1.281h-2.179L27 21.5l-.674 2.073h-2.179z"/>
</g>
</svg>