<svg width="25" height="25" viewBox="0 0 25 25" fill="none" xmlns="http://www.w3.org/2000/svg">
<path d="M6.51523 13.1389C6.51523 12.4903 6.62295 11.8685 6.81523 11.2852L3.44977 8.71521C2.79386 10.047 2.42432 11.5476 2.42432 13.1389C2.42432 14.7289 2.79341 16.2286 3.44841 17.5595L6.81204 14.9845C6.62159 14.4039 6.51523 13.7844 6.51523 13.1389Z" fill="#FBBC05"/>
<path d="M12.4243 7.23818C13.8333 7.23818 15.1061 7.73747 16.1061 8.55449L19.0152 5.64953C17.2424 4.10627 14.9697 3.15308 12.4243 3.15308C8.47243 3.15308 5.07607 5.41305 3.44971 8.71518L6.81516 11.2852C7.59062 8.93123 9.80107 7.23818 12.4243 7.23818Z" fill="#EB4335"/>
<path d="M12.4243 19.0397C9.80107 19.0397 7.59062 17.3466 6.81516 14.9927L3.44971 17.5622C5.07607 20.8648 8.47243 23.1248 12.4243 23.1248C14.8633 23.1248 17.192 22.2587 18.9397 20.636L15.7452 18.1663C14.8438 18.7342 13.7088 19.0397 12.4243 19.0397Z" fill="#34A853"/>
<path d="M21.9698 13.1388C21.9698 12.5488 21.8789 11.9133 21.7425 11.3232H12.4243V15.1814H17.788C17.5198 16.4968 16.7898 17.5081 15.7452 18.1662L18.9398 20.6359C20.7757 18.932 21.9698 16.3938 21.9698 13.1388Z" fill="#4285F4"/>
</svg>
