<svg width="25" height="25" viewBox="0 0 25 25" fill="none" xmlns="http://www.w3.org/2000/svg">
<path fill-rule="evenodd" clip-rule="evenodd" d="M2.5 12.7144C2.5 7.19151 6.97715 2.71436 12.5 2.71436C15.1522 2.71436 17.6957 3.76792 19.5711 5.64329C21.4464 7.51865 22.5 10.0622 22.5 12.7144C22.5 18.2372 18.0228 22.7144 12.5 22.7144C6.97715 22.7144 2.5 18.2372 2.5 12.7144ZM4.5 12.7144C4.5 17.1326 8.08172 20.7144 12.5 20.7144C14.6217 20.7144 16.6566 19.8715 18.1569 18.3712C19.6571 16.8709 20.5 14.8361 20.5 12.7144C20.5 8.29608 16.9183 4.71436 12.5 4.71436C8.08172 4.71436 4.5 8.29608 4.5 12.7144Z" fill="#006EF2"/>
<path d="M12.5 7.71436C9.73858 7.71436 7.5 9.95293 7.5 12.7144C7.5 15.4758 9.73858 17.7144 12.5 17.7144C15.2614 17.7144 17.5 15.4758 17.5 12.7144C17.5 9.95293 15.2614 7.71436 12.5 7.71436V7.71436Z" fill="#006EF2"/>
</svg>
