<svg width="340" height="73" viewBox="0 0 340 73" fill="none" xmlns="http://www.w3.org/2000/svg">
<path d="M0 5.56982H20.4598C35.5866 5.56982 44.7983 11.5131 44.7983 26.8508C44.7983 39.2167 38.1077 44.1056 32.9685 46.1186L47.6104 72.6668H34.0351L21.3325 48.0358H12.1208V72.6668H0V5.56982ZM12.1208 37.4862H20.8477C28.2171 37.4862 32.4836 34.8021 32.4836 26.8457C32.4836 18.41 28.0232 16.1094 19.878 16.1094H12.1208V37.4862Z" fill="#1C2122"/>
<path d="M49.187 38.6366C49.187 25.9831 55.7807 18.1226 69.5499 18.1226C83.3191 18.1226 89.6219 25.6955 89.6219 38.6366V49.5647H60.828V54.7411C60.828 58.7672 63.3492 62.6975 70.4277 62.6975C76.5366 62.6975 79.5425 61.3554 84.5847 58.6714L88.4634 67.2029C83.0333 70.2704 78.088 72.6669 69.9429 72.6669C56.0767 72.6669 49.1921 65.4774 49.1921 53.6866V38.6366H49.187ZM60.8229 40.5538H78.2768C78.2768 32.214 76.6284 28.092 69.5499 28.092C62.4714 28.092 60.8229 31.7347 60.8229 40.5538Z" fill="#1C2122"/>
<path d="M123.55 0.0100888H135.186V71.895H125.974L124.423 67.0062C121.708 70.0737 116.666 72.6619 111.236 72.6619C99.5026 72.6619 93.4907 64.8972 93.4907 52.052V38.6316C93.4907 25.7864 99.4056 18.1176 110.945 18.1176C116.181 18.1176 120.835 20.6099 123.55 23.3899V0V0.0100888ZM123.55 33.1726C121.32 30.872 117.829 28.9548 114.241 28.9548C107.745 28.9548 105.127 32.5016 105.127 39.8828V50.9067C105.127 58.2879 107.745 61.8348 114.241 61.8348C117.829 61.8348 121.32 59.8217 123.55 57.5211V33.1777V33.1726Z" fill="#1C2122"/>
<path d="M166.036 18.8945C177.575 18.8945 182.036 27.0426 182.036 37.4914V72.667H170.4V39.9837C170.4 32.6025 167.394 30.0143 161.964 30.0143C157.794 30.0143 153.819 32.5067 151.976 34.328V72.667H140.34V19.6614H149.843L150.91 25.3172C153.722 22.5372 158.958 18.8945 166.036 18.8945Z" fill="#1C2122"/>
<path d="M209.406 5.56982C223.272 5.56982 230.249 12.6635 230.249 23.8791C230.249 29.9183 226.952 35.0947 221.909 37.2995V37.6829C228.406 40.367 232.091 45.4476 232.091 53.3081C232.091 65.0989 225.303 72.6718 209.212 72.6718H186.522V5.56982H209.406ZM198.643 33.3642H209.018C215.127 33.3642 217.939 30.2008 217.939 24.7368C217.939 19.2728 215.127 16.1094 209.018 16.1094H198.643V33.3642ZM198.643 62.1172H208.048C215.806 62.1172 219.684 60.0082 219.684 52.8187C219.684 45.6292 215.709 43.4245 208.727 43.4245H198.643V62.1172Z" fill="#1C2122"/>
<path d="M235.469 0.776855H247.105V72.6618H235.469V0.776855Z" fill="#1C2122"/>
<path d="M268.818 72.6618C257.279 72.6618 252.819 64.5137 252.819 54.065V18.8894H264.455V51.5726C264.455 58.9539 267.461 61.5421 272.891 61.5421C277.06 61.5421 281.036 59.0497 282.878 57.2284V18.8894H294.514V71.895H285.012L283.945 66.2392C281.133 69.0192 275.897 72.6618 268.818 72.6618Z" fill="#1C2122"/>
<path d="M298.834 38.6366C298.834 25.9831 305.428 18.1226 319.197 18.1226C332.966 18.1226 339.269 25.6955 339.269 38.6366V49.5647H310.475V54.7411C310.475 58.7672 312.996 62.6975 320.075 62.6975C326.184 62.6975 329.19 61.3554 334.232 58.6714L338.111 67.2029C332.68 70.2704 327.735 72.6669 319.59 72.6669C305.724 72.6669 298.839 65.4774 298.839 53.6866V38.6366H298.834ZM310.47 40.5538H327.924C327.924 32.214 326.276 28.092 319.197 28.092C312.119 28.092 310.47 31.7347 310.47 40.5538Z" fill="#1C2122"/>
</svg>
